<svg width="28" height="29" viewBox="0 0 28 29" fill="none" xmlns="http://www.w3.org/2000/svg">
<circle cx="14" cy="14.7129" r="14" fill="#FFB624"/>
<g clip-path="url(#clip0_57_366)">
<path d="M21.7821 14.1867L17.0208 9.4254C16.7303 9.13489 16.2591 9.13489 15.9686 9.4254C15.6781 9.71596 15.6781 10.187 15.9686 10.4775L19.4599 13.9688H6.74396C6.33312 13.9688 6 14.302 6 14.7128C6 15.1236 6.33312 15.4568 6.74396 15.4568H19.4599L15.9688 18.9481C15.6782 19.2386 15.6782 19.7096 15.9688 20.0002C16.114 20.1454 16.3044 20.2181 16.4948 20.2181C16.6852 20.2181 16.8756 20.1454 17.0209 20.0002L21.7821 15.2389C22.0727 14.9483 22.0727 14.4773 21.7821 14.1867Z" fill="white"/>
</g>
<defs>
<clipPath id="clip0_57_366">
<rect width="16" height="16" fill="white" transform="translate(6 6.71289)"/>
</clipPath>
</defs>
</svg>
