<svg width="1087" height="54" viewBox="0 0 1087 54" fill="none" xmlns="http://www.w3.org/2000/svg">
<g clip-path="url(#clip0_27_4)">
<path d="M397.574 33.5885C397.986 34.6869 398.555 35.626 399.282 36.4059C400.01 37.1859 400.872 37.7828 401.868 38.1967C402.864 38.6106 403.947 38.8175 405.117 38.8175C406.256 38.8175 407.323 38.6026 408.32 38.1727C409.316 37.7429 410.186 37.1381 410.929 36.3582C411.672 35.5782 412.249 34.647 412.66 33.5646C413.071 32.4822 413.277 31.2726 413.277 29.9354V9.30615H418.258V42.7331H413.324V39.6292C412.218 40.807 410.913 41.7143 409.411 42.3512C407.908 42.9878 406.288 43.3062 404.548 43.3062C402.777 43.3062 401.125 42.9957 399.591 42.3749C398.057 41.7542 396.728 40.8708 395.606 39.7247C394.483 38.5786 393.597 37.2019 392.949 35.5941C392.301 33.9864 391.977 32.1958 391.977 30.2219V9.30615H396.958V29.9354C396.958 31.2726 397.163 32.4901 397.574 33.5885Z" fill="#154444"/>
<path d="M426.844 9.30615V21.4831C427.951 20.3689 429.232 19.4855 430.687 18.8329C432.142 18.1802 433.723 17.8539 435.431 17.8539C437.202 17.8539 438.862 18.1881 440.412 18.8566C441.961 19.5252 443.306 20.4325 444.444 21.5786C445.583 22.7247 446.484 24.0777 447.148 25.6376C447.812 27.1976 448.144 28.853 448.144 30.604C448.144 32.3548 447.812 34.0023 447.148 35.5462C446.484 37.0903 445.583 38.4354 444.444 39.5813C443.306 40.7274 441.961 41.6348 440.412 42.3033C438.862 42.9718 437.202 43.306 435.431 43.306C433.723 43.306 432.134 42.9798 430.663 42.3271C429.192 41.6745 427.904 40.791 426.797 39.6768V42.733H422.053V9.30615H426.844ZM427.39 33.8988C427.817 34.9177 428.41 35.809 429.169 36.5731C429.928 37.3371 430.813 37.9421 431.825 38.3877C432.837 38.8334 433.928 39.0563 435.099 39.0563C436.237 39.0563 437.312 38.8334 438.324 38.3877C439.337 37.9421 440.214 37.3372 440.957 36.5731C441.701 35.8091 442.294 34.9177 442.736 33.8988C443.179 32.8801 443.401 31.7819 443.401 30.604C443.401 29.426 443.179 28.3197 442.736 27.2851C442.294 26.2504 441.701 25.3511 440.957 24.5871C440.214 23.8231 439.337 23.2261 438.324 22.7964C437.312 22.3667 436.237 22.1516 435.099 22.1516C433.96 22.1516 432.885 22.3666 431.873 22.7964C430.861 23.2262 429.975 23.8231 429.216 24.5871C428.457 25.3511 427.856 26.2504 427.413 27.2851C426.971 28.3197 426.749 29.426 426.749 30.604C426.749 31.7819 426.963 32.8801 427.39 33.8988Z" fill="#154444"/>
<path d="M450.848 25.6853C451.48 24.1572 452.35 22.8122 453.457 21.6502C454.564 20.4883 455.877 19.573 457.395 18.9045C458.913 18.2359 460.557 17.9017 462.328 17.9017C464.068 17.9017 465.681 18.2201 467.167 18.8567C468.654 19.4934 469.935 20.3769 471.01 21.5071C472.085 22.6371 472.923 23.9743 473.524 25.5183C474.125 27.0623 474.426 28.7416 474.426 30.5563V32.1321H454.738C454.896 33.119 455.213 34.0343 455.687 34.8778C456.161 35.7214 456.754 36.4537 457.466 37.0744C458.177 37.6953 458.984 38.1808 459.885 38.5309C460.787 38.8811 461.743 39.0563 462.755 39.0563C465.634 39.0563 467.958 37.8624 469.729 35.4747L473.192 38.0533C471.99 39.6769 470.504 40.9504 468.733 41.8736C466.962 42.7967 464.969 43.2584 462.756 43.2584C460.953 43.2584 459.269 42.9399 457.703 42.3033C456.138 41.6667 454.778 40.7752 453.623 39.6291C452.469 38.4829 451.56 37.1379 450.896 35.594C450.232 34.05 449.899 32.3706 449.899 30.5561C449.899 28.837 450.216 27.2134 450.848 25.6853ZM457.513 23.799C456.169 24.9292 455.276 26.4334 454.833 28.3117H469.587C469.176 26.4334 468.298 24.9292 466.954 23.799C465.61 22.6689 464.036 22.1039 462.234 22.1039C460.431 22.1039 458.857 22.6689 457.513 23.799Z" fill="#154444"/>
<path d="M483.392 24.3482C482.38 25.4624 481.874 26.9746 481.874 28.8848V42.7332H477.082V18.3792H481.826V21.3876C482.427 20.4007 483.21 19.6207 484.174 19.0477C485.139 18.4746 486.285 18.188 487.614 18.188H489.274V22.6768H487.282C485.7 22.6769 484.404 23.234 483.392 24.3482Z" fill="#154444"/>
</g>
<g clip-path="url(#clip1_27_4)">
<path d="M242.262 17.6576C242.262 19.0429 241.115 20.1764 239.711 20.1764C238.308 20.1764 237.16 19.0429 237.16 17.6576C237.16 16.2723 238.245 15.1388 239.711 15.1388C241.178 15.1703 242.262 16.3038 242.262 17.6576ZM231.803 22.6952C231.803 22.9156 231.803 23.3249 231.803 23.3249C231.803 23.3249 230.592 21.7821 228.009 21.7821C223.768 21.7821 220.419 24.9936 220.419 29.4015C220.419 33.8094 223.704 37.0208 228.009 37.0208C230.623 37.0208 231.803 35.4466 231.803 35.4466V36.1078C231.803 36.4226 232.026 36.643 232.345 36.643H235.502V22.16C235.502 22.16 232.6 22.16 232.345 22.16C232.026 22.16 231.803 22.4433 231.803 22.6952ZM231.803 31.9833C231.229 32.8334 230.049 33.5575 228.646 33.5575C226.159 33.5575 224.246 32.0147 224.246 29.4015C224.246 26.7882 226.159 25.2455 228.646 25.2455C230.018 25.2455 231.261 26.0011 231.803 26.8197V31.9833ZM237.862 22.16H241.625V36.643H237.862V22.16ZM293.825 21.7821C291.242 21.7821 290.03 23.3249 290.03 23.3249V15.2018H286.268V36.6745C286.268 36.6745 289.169 36.6745 289.424 36.6745C289.743 36.6745 289.967 36.3911 289.967 36.1393V35.4781C289.967 35.4781 291.178 37.0523 293.761 37.0523C298.002 37.0523 301.35 33.8094 301.35 29.433C301.382 25.0251 298.034 21.7821 293.825 21.7821ZM293.219 33.526C291.784 33.526 290.636 32.8019 290.062 31.9518V26.7882C290.636 26.0326 291.912 25.214 293.219 25.214C295.706 25.214 297.62 26.7568 297.62 29.37C297.62 31.9833 295.706 33.526 293.219 33.526ZM284.354 28.0476V36.6745H280.592V28.4884C280.592 26.0956 279.826 25.1195 277.69 25.1195C276.542 25.1195 275.394 25.6863 274.66 26.5364V36.643H270.898V22.16H273.863C274.182 22.16 274.405 22.4433 274.405 22.6952V23.3249C275.49 22.1914 276.956 21.7821 278.391 21.7821C280.018 21.7821 281.389 22.2544 282.505 23.1675C283.844 24.238 284.354 25.6233 284.354 28.0476ZM261.81 21.7821C259.227 21.7821 258.015 23.3249 258.015 23.3249V15.2018H254.252V36.6745C254.252 36.6745 257.154 36.6745 257.409 36.6745C257.728 36.6745 257.951 36.3911 257.951 36.1393V35.4781C257.951 35.4781 259.163 37.0523 261.746 37.0523C265.987 37.0523 269.335 33.8094 269.335 29.433C269.399 25.0251 266.083 21.7821 261.81 21.7821ZM261.204 33.526C259.769 33.526 258.621 32.8019 258.047 31.9518V26.7882C258.621 26.0326 259.896 25.214 261.204 25.214C263.691 25.214 265.604 26.7568 265.604 29.37C265.604 31.9833 263.691 33.526 261.204 33.526ZM251.032 21.7821C252.18 21.7821 252.754 21.971 252.754 21.971V25.4029C252.754 25.4029 249.629 24.3639 247.683 26.5678V36.706H243.921V22.16C243.921 22.16 246.822 22.16 247.078 22.16C247.396 22.16 247.62 22.4433 247.62 22.6952V23.3249C248.353 22.5063 249.884 21.7821 251.032 21.7821ZM212.129 35.3521C211.937 34.8799 211.746 34.3761 211.555 33.9668C211.236 33.2741 210.917 32.613 210.662 32.0147L210.63 31.9833C207.951 26.19 205.049 20.3338 201.988 14.5721L201.861 14.3517C201.542 13.785 201.223 13.1553 200.936 12.5256C200.553 11.8329 200.171 11.1087 199.533 10.4161C198.289 8.87332 196.504 8.02322 194.59 8.02322C192.645 8.02322 190.891 8.87332 189.584 10.3216C189.01 11.0143 188.563 11.7384 188.181 12.4311C187.862 13.0608 187.543 13.659 187.256 14.2572L187.129 14.4776C184.131 20.2709 181.197 26.1271 178.487 31.8888L178.455 31.9518C178.168 32.5815 177.881 33.2112 177.562 33.9038C177.371 34.3131 177.18 34.7854 176.988 35.2892C176.478 36.706 176.319 38.0598 176.51 39.4452C176.924 42.3418 178.901 44.7661 181.58 45.8366C182.6 46.2459 183.653 46.4663 184.737 46.4663C185.056 46.4663 185.438 46.4348 185.757 46.4034C187.033 46.2459 188.372 45.8366 189.648 45.081C191.242 44.1994 192.773 42.9085 194.495 41.0824C196.217 42.94 197.779 44.1994 199.342 45.081C200.617 45.8051 201.956 46.2459 203.232 46.4034C203.551 46.4348 203.933 46.4663 204.252 46.4663C205.336 46.4663 206.453 46.2774 207.409 45.8366C210.151 44.7661 212.065 42.2788 212.479 39.4452C212.798 38.1228 212.639 36.769 212.129 35.3521ZM194.526 37.3357C192.422 34.7224 191.051 32.2351 190.572 30.1571C190.381 29.2756 190.349 28.4884 190.445 27.7958C190.509 27.1661 190.764 26.6308 191.083 26.19C191.816 25.151 193.06 24.4898 194.526 24.4898C195.993 24.4898 197.269 25.1195 197.97 26.19C198.289 26.6623 198.512 27.1975 198.608 27.7958C198.736 28.4884 198.672 29.307 198.481 30.1571C198.002 32.2351 196.631 34.691 194.526 37.3357ZM210.088 39.1618C209.801 41.1769 208.461 42.9085 206.548 43.6642C205.623 44.042 204.603 44.1679 203.583 44.042C202.594 43.916 201.637 43.6327 200.617 43.0345C199.214 42.2788 197.811 41.0824 196.153 39.2878C198.736 36.1708 200.298 33.3056 200.872 30.7553C201.159 29.5589 201.191 28.4884 201.063 27.4809C200.904 26.5049 200.553 25.6233 200.011 24.8677C198.799 23.136 196.759 22.1285 194.495 22.1285C192.231 22.1285 190.19 23.1675 188.978 24.8677C188.436 25.6233 188.085 26.5364 187.926 27.4809C187.766 28.4884 187.798 29.5904 188.117 30.7553C188.691 33.3056 190.317 36.2022 192.836 39.3192C191.242 41.0824 189.807 42.2788 188.372 43.066C187.352 43.6327 186.395 43.9475 185.407 44.0735C184.354 44.1994 183.334 44.042 182.441 43.6957C180.528 42.94 179.157 41.1769 178.901 39.1933C178.774 38.2173 178.87 37.2727 179.252 36.2022C179.38 35.8244 179.571 35.4466 179.762 34.9743C180.049 34.3446 180.336 33.7149 180.655 33.0537L180.687 32.9908C183.366 27.2605 186.268 21.3728 189.265 15.6741L189.393 15.4537C189.711 14.8869 190.03 14.2572 190.317 13.6905C190.636 13.0608 190.987 12.4941 191.401 11.9903C192.231 11.0773 193.315 10.5735 194.526 10.5735C195.738 10.5735 196.822 11.0773 197.651 11.9903C198.066 12.4941 198.417 13.0608 198.736 13.6905C199.055 14.2572 199.373 14.8869 199.66 15.4537L199.788 15.6741C202.754 21.4043 205.655 27.292 208.334 33.0223V33.0537C208.653 33.6834 208.908 34.3761 209.227 34.9743C209.418 35.4466 209.609 35.8244 209.737 36.2022C210.12 37.1783 210.247 38.1543 210.088 39.1618Z" fill="#244D4D"/>
</g>
<g clip-path="url(#clip2_27_4)">
<path d="M12.1877 52.1634V48.7139C12.1877 47.3916 11.3829 46.5292 10.0031 46.5292C9.31319 46.5292 8.56581 46.7592 8.04839 47.5066C7.64595 46.8742 7.07103 46.5292 6.20866 46.5292C5.63375 46.5292 5.05885 46.7017 4.59892 47.3341V46.6442H3.3916V52.1634H4.59892V49.1163C4.59892 48.139 5.11633 47.679 5.92121 47.679C6.72608 47.679 7.12852 48.1965 7.12852 49.1163V52.1634H8.33584V49.1163C8.33584 48.139 8.91075 47.679 9.65813 47.679C10.463 47.679 10.8654 48.1965 10.8654 49.1163V52.1634H12.1877ZM30.0675 46.6442H28.1128V44.977H26.9055V46.6442H25.8131V47.7365H26.9055V50.2661C26.9055 51.5309 27.4229 52.2783 28.8027 52.2783C29.3201 52.2783 29.895 52.1059 30.2974 51.8759L29.9525 50.841C29.6075 51.071 29.2051 51.1285 28.9177 51.1285C28.3427 51.1285 28.1128 50.7836 28.1128 50.2087V47.7365H30.0675V46.6442ZM40.3009 46.5292C39.611 46.5292 39.1511 46.8742 38.8636 47.3341V46.6442H37.6563V52.1634H38.8636V49.0588C38.8636 48.139 39.2661 47.6216 40.0134 47.6216C40.2434 47.6216 40.5309 47.679 40.7608 47.7365L41.1058 46.5867C40.8758 46.5292 40.5309 46.5292 40.3009 46.5292ZM24.8358 47.1041C24.2609 46.7017 23.456 46.5292 22.5936 46.5292C21.2138 46.5292 20.294 47.2191 20.294 48.3114C20.294 49.2313 20.9839 49.7487 22.1912 49.9212L22.7661 49.9787C23.3985 50.0937 23.7435 50.2661 23.7435 50.5536C23.7435 50.956 23.2835 51.2435 22.4786 51.2435C21.6738 51.2435 21.0414 50.956 20.6389 50.6686L20.064 51.5884C20.6964 52.0484 21.5588 52.2783 22.4212 52.2783C24.0309 52.2783 24.9508 51.531 24.9508 50.4961C24.9508 49.5188 24.2034 49.0013 23.0536 48.8289L22.4786 48.7714C21.9612 48.7139 21.5588 48.5989 21.5588 48.2539C21.5588 47.8515 21.9612 47.6216 22.5936 47.6216C23.2835 47.6216 23.9734 47.909 24.3184 48.0815L24.8358 47.1041ZM56.9158 46.5292C56.2259 46.5292 55.766 46.8742 55.4786 47.3341V46.6442H54.2712V52.1634H55.4786V49.0588C55.4786 48.139 55.881 47.6216 56.6284 47.6216C56.8583 47.6216 57.1458 47.679 57.3758 47.7365L57.7207 46.5867C57.4907 46.5292 57.1458 46.5292 56.9158 46.5292ZM41.5082 49.4038C41.5082 51.071 42.658 52.2783 44.4403 52.2783C45.2451 52.2783 45.82 52.1059 46.395 51.6459L45.82 50.6686C45.3601 51.0135 44.9002 51.186 44.3828 51.186C43.4054 51.186 42.7155 50.4961 42.7155 49.4038C42.7155 48.3689 43.4054 47.6791 44.3828 47.6216C44.9002 47.6216 45.3601 47.794 45.82 48.139L46.395 47.1616C45.82 46.7017 45.2451 46.5292 44.4403 46.5292C42.658 46.5292 41.5082 47.7365 41.5082 49.4038ZM52.6615 49.4038V46.6442H51.4542V47.3341C51.0517 46.8167 50.4768 46.5292 49.7295 46.5292C48.1772 46.5292 46.9699 47.7365 46.9699 49.4038C46.9699 51.071 48.1772 52.2783 49.7295 52.2783C50.5343 52.2783 51.1092 51.9909 51.4542 51.4735V52.1634H52.6615V49.4038ZM48.2347 49.4038C48.2347 48.4264 48.8671 47.6216 49.9019 47.6216C50.8793 47.6216 51.5692 48.3689 51.5692 49.4038C51.5692 50.3811 50.8793 51.186 49.9019 51.186C48.8671 51.1285 48.2347 50.3811 48.2347 49.4038ZM33.8044 46.5292C32.1947 46.5292 31.0448 47.679 31.0448 49.4038C31.0448 51.1285 32.1947 52.2783 33.8619 52.2783C34.6668 52.2783 35.4716 52.0484 36.104 51.5309L35.5291 50.6686C35.0692 51.0135 34.4943 51.2435 33.9194 51.2435C33.172 51.2435 32.4246 50.8986 32.2521 49.9212H36.334C36.334 49.7487 36.334 49.6337 36.334 49.4613C36.3915 47.679 35.3567 46.5292 33.8044 46.5292ZM33.8044 47.5641C34.5518 47.5641 35.0692 48.024 35.1842 48.8864H32.3096C32.4246 48.139 32.942 47.5641 33.8044 47.5641ZM63.7573 49.4038V44.4595H62.55V47.3341C62.1475 46.8167 61.5726 46.5292 60.8252 46.5292C59.273 46.5292 58.0657 47.7365 58.0657 49.4038C58.0657 51.071 59.273 52.2783 60.8252 52.2783C61.6301 52.2783 62.205 51.9909 62.55 51.4735V52.1634H63.7573V49.4038ZM59.3305 49.4038C59.3305 48.4264 59.9629 47.6216 60.9977 47.6216C61.975 47.6216 62.665 48.3689 62.665 49.4038C62.665 50.3811 61.975 51.186 60.9977 51.186C59.9629 51.1285 59.3305 50.3811 59.3305 49.4038ZM18.9717 49.4038V46.6442H17.7644V47.3341C17.3619 46.8167 16.787 46.5292 16.0396 46.5292C14.4874 46.5292 13.2801 47.7365 13.2801 49.4038C13.2801 51.071 14.4874 52.2783 16.0396 52.2783C16.8445 52.2783 17.4194 51.9909 17.7644 51.4735V52.1634H18.9717V49.4038ZM14.4874 49.4038C14.4874 48.4264 15.1198 47.6216 16.1546 47.6216C17.132 47.6216 17.8219 48.3689 17.8219 49.4038C17.8219 50.3811 17.132 51.186 16.1546 51.186C15.1198 51.1285 14.4874 50.3811 14.4874 49.4038Z" fill="black"/>
<path d="M42.5423 4.73291H24.4326V37.2729H42.5423V4.73291Z" fill="#FF5F00"/>
<path d="M25.5836 21.003C25.5836 14.3915 28.6881 8.52739 33.4598 4.73298C29.9529 1.9734 25.5261 0.306152 20.6968 0.306152C9.25607 0.306152 0 9.56223 0 21.003C0 32.4437 9.25607 41.6998 20.6968 41.6998C25.5261 41.6998 29.9529 40.0325 33.4598 37.273C28.6881 33.536 25.5836 27.6144 25.5836 21.003Z" fill="#EB001B"/>
<path d="M66.9774 21.003C66.9774 32.4437 57.7213 41.6998 46.2806 41.6998C41.4514 41.6998 37.0245 40.0325 33.5176 37.273C38.3468 33.4785 41.3939 27.6144 41.3939 21.003C41.3939 14.3915 38.2893 8.52739 33.5176 4.73298C37.0245 1.9734 41.4514 0.306152 46.2806 0.306152C57.7213 0.306152 66.9774 9.61972 66.9774 21.003Z" fill="#F79E1B"/>
</g>
<g clip-path="url(#clip3_27_4)">
<path d="M828.598 40.0662L833.149 14.4662H840.26L835.851 40.0662H828.598Z" fill="#3C58BF"/>
<path d="M828.598 40.0662L834.429 14.4662H840.26L835.851 40.0662H828.598Z" fill="#293688"/>
<path d="M861.592 14.7506C860.17 14.1817 857.894 13.6128 855.05 13.6128C847.939 13.6128 842.819 17.1684 842.819 22.2884C842.819 26.1284 846.374 28.1195 849.219 29.3995C852.063 30.6795 852.916 31.5328 852.916 32.6706C852.916 34.3773 850.641 35.2306 848.65 35.2306C845.805 35.2306 844.241 34.8039 841.823 33.8084L840.828 33.3817L839.832 39.2128C841.539 39.9239 844.668 40.635 847.939 40.635C855.476 40.635 860.454 37.0795 860.454 31.675C860.454 28.6884 858.605 26.4128 854.339 24.5639C851.779 23.2839 850.214 22.5728 850.214 21.2928C850.214 20.155 851.494 19.0173 854.339 19.0173C856.756 19.0173 858.463 19.4439 859.743 20.0128L860.454 20.2973L861.592 14.7506Z" fill="#3C58BF"/>
<path d="M861.592 14.7506C860.17 14.1817 857.894 13.6128 855.05 13.6128C847.939 13.6128 844.099 17.1684 844.099 22.2884C844.099 26.1284 846.374 28.1195 849.219 29.3995C852.063 30.6795 852.916 31.5328 852.916 32.6706C852.916 34.3773 850.641 35.2306 848.65 35.2306C845.805 35.2306 844.241 34.8039 841.823 33.8084L840.828 33.3817L839.832 39.2128C841.539 39.9239 844.668 40.635 847.939 40.635C855.476 40.635 860.454 37.0795 860.454 31.675C860.454 28.6884 858.605 26.4128 854.339 24.5639C851.779 23.2839 850.214 22.5728 850.214 21.2928C850.214 20.155 851.494 19.0173 854.339 19.0173C856.756 19.0173 858.463 19.4439 859.743 20.0128L860.454 20.2973L861.592 14.7506Z" fill="#293688"/>
<path d="M873.823 14.4662C872.117 14.4662 870.837 14.6084 870.126 16.315L859.459 40.0662H867.139L868.561 35.7995H877.663L878.517 40.0662H885.343L879.37 14.4662H873.823ZM870.552 31.5328C870.979 30.2528 873.397 23.995 873.397 23.995C873.397 23.995 873.966 22.4306 874.392 21.435L874.819 23.8528C874.819 23.8528 876.241 30.2528 876.526 31.6751H870.552V31.5328Z" fill="#3C58BF"/>
<path d="M875.53 14.4662C873.823 14.4662 872.543 14.6084 871.832 16.315L859.459 40.0662H867.139L868.561 35.7995H877.663L878.517 40.0662H885.343L879.37 14.4662H875.53ZM870.552 31.5328C871.121 30.1106 873.397 23.995 873.397 23.995C873.397 23.995 873.966 22.4306 874.392 21.435L874.819 23.8528C874.819 23.8528 876.241 30.2528 876.526 31.6751H870.552V31.5328Z" fill="#293688"/>
<path d="M815.513 32.3862L814.802 28.6884C813.522 24.4218 809.398 19.7284 804.847 17.4529L811.247 40.2084H818.927L830.447 14.6084H822.767L815.513 32.3862Z" fill="#3C58BF"/>
<path d="M815.513 32.3862L814.802 28.6884C813.522 24.4218 809.398 19.7284 804.847 17.4529L811.247 40.2084H818.927L830.447 14.6084H824.189L815.513 32.3862Z" fill="#293688"/>
<path d="M795.744 14.4662L797.024 14.7506C806.126 16.8839 812.384 22.2884 814.802 28.6884L812.242 16.5995C811.815 14.8928 810.535 14.4662 808.971 14.4662H795.744Z" fill="#FFBC00"/>
<path d="M795.744 14.4662C804.846 16.5995 812.384 22.1462 814.802 28.5462L812.384 18.4484C811.957 16.7417 810.535 15.7462 808.971 15.7462L795.744 14.4662Z" fill="#F7981D"/>
<path d="M795.744 14.4662C804.846 16.5995 812.384 22.1462 814.802 28.5462L813.095 22.9995C812.669 21.2928 812.1 19.5862 810.109 18.875L795.744 14.4662Z" fill="#ED7C00"/>
<path d="M822.624 31.5328L817.788 26.6972L815.513 32.1017L814.944 28.5461C813.664 24.2795 809.539 19.5861 804.988 17.3106L811.388 40.0661H819.068L822.624 31.5328Z" fill="#051244"/>
<path d="M835.85 40.0663L829.734 33.8085L828.597 40.0663H835.85Z" fill="#051244"/>
<path d="M852.205 31.2484C852.774 31.8173 853.059 32.244 852.916 32.8128C852.916 34.5195 850.641 35.3728 848.65 35.3728C845.805 35.3728 844.241 34.9462 841.823 33.9506L840.828 33.524L839.832 39.3551C841.539 40.0662 844.668 40.7773 847.939 40.7773C852.49 40.7773 856.188 39.4973 858.321 37.2217L852.205 31.2484Z" fill="#051244"/>
<path d="M860.455 40.066H867.14L868.562 35.7993H877.664L878.517 40.066H885.344L882.926 29.6838L874.393 21.4349L874.82 23.7104C874.82 23.7104 876.242 30.1104 876.526 31.5327H870.553C871.122 30.1104 873.397 23.9949 873.397 23.9949C873.397 23.9949 873.966 22.4304 874.393 21.4349" fill="#051244"/>
</g>
<path d="M602.051 7.3075H593.77C593.203 7.3075 592.721 7.85016 592.632 8.58759L589.283 36.5705C589.216 37.1224 589.541 37.6204 589.966 37.6204H593.92C594.486 37.6204 594.968 37.0779 595.057 36.3391L595.96 28.7918C596.047 28.0528 596.53 27.5103 597.096 27.5103H599.717C605.172 27.5103 608.321 24.0317 609.143 17.1385C609.513 14.1227 609.159 11.7532 608.087 10.0937C606.91 8.27131 604.822 7.3075 602.051 7.3075ZM603.006 17.5279C602.553 21.4436 600.283 21.4437 598.087 21.4437H596.838L597.715 14.1308C597.767 13.6887 598.057 13.3632 598.396 13.3632H598.969C600.464 13.3632 601.875 13.3632 602.604 14.4864C603.039 15.1567 603.172 16.1524 603.006 17.5279Z" fill="#283B82"/>
<path d="M626.804 17.4017H622.839C622.501 17.4017 622.209 17.7272 622.157 18.1693L621.982 19.6309L621.704 19.1011C620.846 17.4591 618.931 16.9103 617.02 16.9103C612.638 16.9103 608.895 21.2839 608.166 27.4192C607.787 30.4797 608.326 33.4062 609.644 35.4469C610.852 37.3234 612.581 38.1052 614.639 38.1052C618.17 38.1052 620.128 35.1136 620.128 35.1136L619.951 36.5656C619.884 37.1209 620.209 37.6187 620.631 37.6187H624.203C624.771 37.6187 625.251 37.0761 625.341 36.3375L627.484 18.4516C627.552 17.9011 627.228 17.4017 626.804 17.4017ZM621.277 27.5725C620.894 30.5578 619.096 32.5622 616.803 32.5622C615.651 32.5622 614.731 32.0754 614.14 31.1531C613.554 30.2372 613.331 28.9335 613.517 27.4814C613.875 24.5215 615.703 22.452 617.961 22.452C619.088 22.452 620.003 22.945 620.606 23.8752C621.21 24.815 621.45 26.1267 621.277 27.5725Z" fill="#283B82"/>
<path d="M647.926 17.4017H643.941C643.56 17.4017 643.203 17.6507 642.988 18.0672L637.491 28.7358L635.162 18.4836C635.015 17.8421 634.566 17.4017 634.057 17.4017H630.141C629.665 17.4017 629.335 18.0144 629.486 18.6048L633.876 35.5794L629.749 43.2562C629.424 43.8608 629.751 44.6925 630.312 44.6925H634.292C634.67 44.6925 635.024 44.4498 635.238 44.0413L648.492 18.8299C648.81 18.2267 648.484 17.4017 647.926 17.4017Z" fill="#283B82"/>
<path d="M661.119 7.3075H652.837C652.271 7.3075 651.789 7.85016 651.701 8.58759L648.351 36.5705C648.285 37.1224 648.609 37.6204 649.032 37.6204H653.282C653.677 37.6204 654.015 37.2408 654.077 36.7237L655.027 28.7918C655.114 28.0528 655.598 27.5103 656.163 27.5103H658.783C664.239 27.5103 667.387 24.0317 668.21 17.1385C668.582 14.1227 668.225 11.7532 667.153 10.0937C665.977 8.27131 663.891 7.3075 661.119 7.3075ZM662.075 17.5279C661.623 21.4436 659.353 21.4437 657.156 21.4437H655.908L656.785 14.1308C656.837 13.6887 657.126 13.3632 657.466 13.3632H658.039C659.533 13.3632 660.945 13.3632 661.674 14.4864C662.108 15.1567 662.24 16.1524 662.075 17.5279Z" fill="#469BDB"/>
<path d="M685.873 17.4017H681.909C681.569 17.4017 681.28 17.7272 681.229 18.1693L681.053 19.6309L680.775 19.1011C679.916 17.4591 678.003 16.9103 676.092 16.9103C671.71 16.9103 667.968 21.2839 667.239 27.4192C666.862 30.4797 667.398 33.4062 668.716 35.4469C669.926 37.3234 671.653 38.1052 673.71 38.1052C677.241 38.1052 679.199 35.1136 679.199 35.1136L679.022 36.5656C678.956 37.1209 679.28 37.6187 679.706 37.6187H683.276C683.842 37.6187 684.324 37.0761 684.412 36.3375L686.557 18.4516C686.622 17.9011 686.298 17.4017 685.873 17.4017ZM680.345 27.5725C679.965 30.5578 678.164 32.5622 675.871 32.5622C674.721 32.5622 673.799 32.0754 673.208 31.1531C672.622 30.2372 672.401 28.9335 672.586 27.4814C672.945 24.5215 674.771 22.452 677.03 22.452C678.156 22.452 679.071 22.945 679.674 23.8752C680.281 24.815 680.52 26.1267 680.345 27.5725Z" fill="#469BDB"/>
<path d="M690.547 8.07521L687.148 36.5705C687.082 37.1224 687.406 37.6204 687.829 37.6204H691.246C691.814 37.6204 692.296 37.0779 692.383 36.3391L695.735 8.35786C695.801 7.80554 695.477 7.30615 695.054 7.30615H691.228C690.89 7.30749 690.599 7.63342 690.547 8.07521Z" fill="#469BDB"/>
<g clip-path="url(#clip4_27_4)">
<path d="M937.557 25.3531C937.557 24.1485 938.546 23.685 940.183 23.685C942.531 23.685 945.496 24.3957 947.844 25.6621V18.4028C945.28 17.3835 942.747 16.9819 940.183 16.9819C933.912 16.9819 929.742 20.2564 929.742 25.724C929.742 34.2494 941.48 32.8904 941.48 36.5664C941.48 37.9871 940.245 38.4506 938.515 38.4506C935.951 38.4506 932.677 37.4002 930.082 35.9793V43.3312C932.955 44.5668 935.858 45.0918 938.515 45.0918C944.94 45.0918 949.357 41.9103 949.357 36.3809C949.326 27.1758 937.557 28.8128 937.557 25.3531ZM958.439 10.804L950.902 12.4102L950.871 37.1531C950.871 41.725 954.3 45.0918 958.872 45.0918C961.404 45.0918 963.258 44.6285 964.277 44.0725V37.8018C963.289 38.2034 958.408 39.6243 958.408 35.0526V24.0866H964.277V17.5071H958.408L958.439 10.804ZM973.884 19.7929L973.39 17.5071H966.718V44.5358H974.44V26.2182C976.262 23.8396 979.352 24.2721 980.309 24.6118V17.5071C979.321 17.1363 975.707 16.4567 973.884 19.7929ZM982.193 17.5071H989.947V44.5358H982.193V17.5071ZM982.193 15.1594L989.947 13.4914V7.22073L982.193 8.85795V15.1592V15.1594ZM1006.07 16.9819C1003.04 16.9819 1001.1 18.4028 1000.02 19.3915L999.615 17.4763H992.82V53.4938L1000.54 51.8568L1000.57 43.1149C1001.69 43.918 1003.32 45.0609 1006.04 45.0609C1011.57 45.0609 1016.6 40.6128 1016.6 30.8207C1016.57 21.8625 1011.48 16.9819 1006.07 16.9819ZM1004.22 38.2651C1002.4 38.2651 1001.31 37.6166 1000.57 36.8134L1000.54 25.3531C1001.35 24.4573 1002.46 23.8396 1004.22 23.8396C1007.03 23.8396 1008.98 26.9903 1008.98 31.0368C1008.98 35.1762 1007.06 38.2651 1004.22 38.2651ZM1040.95 31.1296C1040.95 23.2217 1037.12 16.9819 1029.79 16.9819C1022.44 16.9819 1017.99 23.2219 1017.99 31.0679C1017.99 40.3656 1023.25 45.0609 1030.78 45.0609C1034.46 45.0609 1037.24 44.2269 1039.34 43.0532V36.8751C1037.24 37.9254 1034.83 38.5742 1031.77 38.5742C1028.78 38.5742 1026.12 37.5238 1025.78 33.8788H1040.88C1040.88 33.477 1040.95 31.8709 1040.95 31.1296ZM1025.69 28.1951C1025.69 24.7045 1027.82 23.2526 1029.76 23.2526C1031.65 23.2526 1033.66 24.7045 1033.66 28.1951H1025.69Z" fill="#154444" fill-opacity="0.86"/>
</g>
<defs>
<clipPath id="clip0_27_4">
<rect width="97.2975" height="34" fill="white" transform="translate(391.977 9.30615)"/>
</clipPath>
<clipPath id="clip1_27_4">
<rect width="125" height="39" fill="white" transform="translate(176.383 7.68848)"/>
</clipPath>
<clipPath id="clip2_27_4">
<rect width="66.9772" height="51.972" fill="white" transform="translate(0 0.306152)"/>
</clipPath>
<clipPath id="clip3_27_4">
<rect width="89.6" height="32" fill="white" transform="translate(795.744 10.3062)"/>
</clipPath>
<clipPath id="clip4_27_4">
<rect width="111.204" height="46.4833" fill="white" transform="translate(929.742 7.21893)"/>
</clipPath>
</defs>
</svg>
