<svg width="20" height="21" viewBox="0 0 20 21" fill="none" xmlns="http://www.w3.org/2000/svg">
<g clip-path="url(#clip0_57_383)">
<path d="M9.99991 20.1717C15.5227 20.1717 19.9998 15.6946 19.9998 10.1718C19.9998 4.64899 15.5227 0.171875 9.99991 0.171875C4.47711 0.171875 0 4.64899 0 10.1718C0 15.6946 4.47711 20.1717 9.99991 20.1717Z" fill="white"/>
<path d="M16.1242 7.35843C15.6957 7.54846 15.2347 7.67698 14.7513 7.73438C15.2449 7.43865 15.6237 6.97072 15.8025 6.41224C15.3406 6.68622 14.8288 6.88498 14.2846 6.99211C13.8486 6.52775 13.2273 6.23755 12.5394 6.23755C11.2196 6.23755 10.1492 7.30799 10.1492 8.62781C10.1492 8.81516 10.1704 8.99752 10.2114 9.17256C8.22489 9.07292 6.46353 8.12138 5.28453 6.67482C5.07882 7.02777 4.96081 7.43865 4.96081 7.87663C4.96081 8.70571 5.3831 9.43763 6.02412 9.86617C5.63249 9.85387 5.26367 9.74638 4.94156 9.56687C4.94138 9.57703 4.94138 9.58719 4.94138 9.59717C4.94138 10.7553 5.76565 11.7213 6.8589 11.9407C6.65854 11.9956 6.44695 12.0247 6.22929 12.0247C6.07492 12.0247 5.92537 12.0099 5.77955 11.9821C6.08366 12.9315 6.96621 13.6226 8.01241 13.642C7.1942 14.2832 6.1637 14.6652 5.04352 14.6652C4.851 14.6652 4.66027 14.654 4.47363 14.6317C5.53088 15.3102 6.7876 15.7057 8.13737 15.7057C12.5339 15.7057 14.9383 12.0636 14.9383 8.90464C14.9383 8.80108 14.9359 8.69786 14.9313 8.59554C15.3987 8.25864 15.8039 7.83777 16.1242 7.35843Z" fill="#305F64"/>
</g>
<defs>
<clipPath id="clip0_57_383">
<rect width="20" height="20" fill="white" transform="translate(-0.000976562 0.171875)"/>
</clipPath>
</defs>
</svg>
